<svg width="42" height="42" viewBox="0 0 42 42" fill="none" xmlns="http://www.w3.org/2000/svg">
<g clip-path="url(#clip0_63_2)">
<path d="M37.7318 18.2231H37.7347V18.1567C37.7347 18.1798 37.7347 18.2 37.7318 18.2231ZM23.27 0.15299C23.5654 0.193402 23.8578 0.239588 24.1473 0.294433C23.8578 0.239588 23.5654 0.190515 23.27 0.15299ZM22.821 0.0981443C22.6084 0.0750515 22.3927 0.0548454 22.1741 0.0404124C22.0885 0.0346392 22.0028 0.028866 21.9172 0.0259794C21.8847 0.0259794 21.8551 0.0259794 21.8226 0.0230928C21.8699 0.0230928 21.9142 0.028866 21.9615 0.028866C22.248 0.0461856 22.5345 0.0663918 22.821 0.0981443ZM21.0015 0C20.8981 0 20.7947 0 20.6913 0.0057732H20.6677C20.5673 0.00865979 20.4668 0.0115464 20.3664 0.014433C20.3044 0.014433 20.2453 0.0202062 20.1833 0.0230928C20.2837 0.0173196 20.3871 0.014433 20.4875 0.0115464C20.6559 0.0057732 20.8243 0.0028866 20.9926 0.0028866H20.9985C21.1521 0.0028866 21.3057 0.0028866 21.4593 0.00865979C21.5804 0.00865979 21.7015 0.0173196 21.8226 0.0230928C21.5509 0.00865979 21.2762 0 21.0015 0ZM19.5512 0.0635052C19.4773 0.0635052 19.4064 0.0721649 19.3326 0.0837113C19.4537 0.0692783 19.5778 0.0606186 19.7018 0.0519588C19.7136 0.0519588 19.7254 0.0519588 19.7373 0.0519588H19.7343C19.6723 0.0519588 19.6102 0.0606186 19.5512 0.0663918V0.0635052ZM19.7373 0.0490722H19.7432C19.8022 0.043299 19.8613 0.0404124 19.9234 0.0375258H19.8879C19.8377 0.0375258 19.7875 0.0461856 19.7373 0.0490722ZM18.5085 0.181856C18.6946 0.155876 18.8836 0.129897 19.0697 0.109691C19.1583 0.101031 19.244 0.0894845 19.3326 0.0837113C19.2144 0.0923711 19.0992 0.103918 18.9811 0.118351C18.8245 0.138557 18.665 0.158763 18.5085 0.181856Z" fill="white"/>
<path d="M16.7362 25.1249C16.3108 25.1249 15.9121 24.868 15.7614 24.4524C15.4336 23.5546 14.6863 22.9715 13.8592 22.9715C13.0321 22.9715 12.2848 23.5518 11.9569 24.4524C11.7649 24.9777 11.1742 25.252 10.6366 25.0643C10.099 24.8767 9.8184 24.2994 10.0104 23.774C10.6248 22.0854 12.1726 20.9509 13.8621 20.9509C15.5517 20.9509 17.0965 22.0854 17.7139 23.774C17.9059 24.2994 17.6253 24.8767 17.0877 25.0643C16.9725 25.1047 16.8573 25.1221 16.7421 25.1221L16.7362 25.1249Z" fill="white"/>
<path d="M25.2638 25.125C25.1486 25.125 25.0305 25.1048 24.9182 25.0673C24.3806 24.8796 24.1 24.3023 24.292 23.777C24.9064 22.0883 26.4542 20.9539 28.1438 20.9539C29.8333 20.9539 31.3782 22.0883 31.9955 23.777C32.1875 24.3023 31.9069 24.8796 31.3693 25.0673C30.8317 25.2549 30.241 24.9807 30.049 24.4553C29.7211 23.5576 28.9738 22.9745 28.1467 22.9745C27.3197 22.9745 26.5723 23.5547 26.2445 24.4553C26.0938 24.8681 25.6951 25.1279 25.2697 25.1279L25.2638 25.125Z" fill="white"/>
<path d="M20.9985 35.355C18.5085 35.355 16.2666 34.3188 15.2859 32.7109C14.9935 32.2317 15.153 31.6111 15.6433 31.3254C16.1336 31.0396 16.7687 31.1955 17.0611 31.6746C17.6578 32.6503 19.2765 33.3344 20.9985 33.3344C22.7206 33.3344 24.3393 32.6532 24.9359 31.6746C25.2284 31.1955 25.8634 31.0396 26.3538 31.3254C26.8441 31.6111 27.0036 32.2317 26.7112 32.7109C25.7305 34.3159 23.4856 35.355 20.9985 35.355Z" fill="white"/>
<path d="M40.8421 20.0792C40.851 19.857 40.8539 19.6318 40.8539 19.4066C40.8539 9.07262 32.5922 0.629321 22.1741 0.0404555C22.3927 0.0548885 22.6083 0.0750946 22.821 0.0981874C22.5197 0.0664349 22.2184 0.0433421 21.9172 0.0260225C21.7636 0.0173627 21.6129 0.0115895 21.4593 0.00870288C21.3057 0.00581629 21.1521 0.00292969 20.9985 0.00292969H20.9926C20.7829 0.00292969 20.5732 0.00292969 20.3664 0.0144761C20.3044 0.0144761 20.2453 0.0202493 20.1833 0.0231359C20.0947 0.0260225 20.009 0.0317957 19.9233 0.0375689H19.8879C19.8377 0.0375689 19.7875 0.0462287 19.7373 0.0491153H19.7343C19.7343 0.0491153 19.7136 0.0491153 19.7018 0.0491153C19.6605 0.0520019 19.6191 0.0548885 19.5748 0.0577751C19.5925 0.0577751 19.6073 0.0577751 19.625 0.0548884C19.5275 0.0635482 19.4301 0.0693214 19.3326 0.0808678C19.244 0.086641 19.1583 0.0981874 19.0697 0.106847C18.8836 0.127053 18.6946 0.153033 18.5085 0.179012C18.665 0.155919 18.8245 0.135713 18.9811 0.115507C19.0992 0.101074 19.2144 0.0895276 19.3326 0.0808678C19.4035 0.072208 19.4773 0.0664348 19.5512 0.0606616C19.56 0.0606616 19.5689 0.0606616 19.5748 0.0606616C9.27491 0.773651 1.14607 9.15922 1.14607 19.4066C1.14607 19.6318 1.14607 19.857 1.15789 20.0792C0.434208 20.9654 0 22.0825 0 23.3036C0 25.4425 1.33511 27.2813 3.23145 28.0693C3.63317 28.2396 4.06147 28.358 4.50749 28.4244C4.67881 29.4029 4.9417 30.3526 5.28138 31.2619C7.62965 37.5229 13.7883 42 21.0015 42C28.2146 42 34.3703 37.5229 36.7186 31.2619C37.0583 30.3526 37.3212 29.4029 37.4925 28.4244C37.9385 28.358 38.3668 28.2396 38.7686 28.0693C40.6649 27.2813 42 25.4425 42 23.3036C42 22.0825 41.5687 20.9654 40.8421 20.0792ZM24.1473 0.294476C23.8578 0.239631 23.5654 0.193445 23.27 0.153033C23.5654 0.190559 23.8578 0.239631 24.1473 0.294476ZM2.06766 23.3036C2.06766 21.9151 2.98924 20.7345 4.26528 20.313V25.6446C4.26528 25.864 4.27119 26.0833 4.28005 26.2998C2.99515 25.8813 2.06766 24.6978 2.06766 23.3036ZM35.6671 25.6446C35.6671 29.8446 33.8091 33.6289 30.8553 36.2528C28.2501 38.565 24.7912 39.9794 21.0015 39.9794C17.2118 39.9794 13.7499 38.565 11.1447 36.2528C8.19087 33.6289 6.33294 29.8446 6.33294 25.6446V19.3374C7.26043 19.4384 8.19087 19.4788 9.11541 19.4586C12.2169 19.3864 15.2357 18.6561 18.1156 17.2792L18.3224 20.0763C18.346 20.4083 18.538 20.7085 18.8334 20.8759C18.9929 20.9654 19.1731 21.0116 19.3533 21.0116C19.5039 21.0116 19.6545 20.9798 19.7963 20.9163L29.2307 16.5489C29.8126 17.4264 30.876 18.6042 32.6306 19.1873C33.7707 19.5683 34.8252 19.5741 35.6671 19.4528V25.6446ZM37.72 26.2998C37.7288 26.0833 37.7347 25.864 37.7347 25.6446V20.313C39.0108 20.7345 39.9323 21.9151 39.9323 23.3036C39.9323 24.692 39.0049 25.8813 37.72 26.2998Z" fill="white"/>
<path d="M18.9811 0.117555C19.0992 0.103465 19.2144 0.0921938 19.3326 0.0837402C19.244 0.089376 19.1583 0.100647 19.0697 0.109101C19.0402 0.109101 19.0106 0.114737 18.9811 0.117555Z" fill="white"/>
<path d="M19.7432 0.0488691H19.7372C19.7875 0.0460513 19.8377 0.0404155 19.8879 0.0375977C19.8377 0.0375977 19.7904 0.0432334 19.7432 0.0488691Z" fill="white"/>
<path d="M19.7343 0.0490723H19.7372C19.6752 0.054708 19.6132 0.0575259 19.5511 0.0631616C19.6102 0.0575259 19.6723 0.0518901 19.7343 0.0490723Z" fill="white"/>
<path d="M22.1742 0.0403119C22.3927 0.0547449 22.6084 0.0749511 22.821 0.0980439C22.5198 0.0662913 22.2185 0.0431985 21.9172 0.0258789C22.0028 0.0258789 22.0885 0.0345387 22.1742 0.0403119Z" fill="white"/>
<path d="M23.27 0.153076C23.5654 0.190602 23.8578 0.239674 24.1473 0.294519C23.8578 0.239674 23.5654 0.193489 23.27 0.153076Z" fill="white"/>
<path d="M37.7347 18.1567V18.2231H37.7318C37.7347 18.2 37.7347 18.1798 37.7347 18.1567Z" fill="white"/>
<path d="M20.6913 0.00581629H20.6677C20.5673 0.00870288 20.4668 0.0115895 20.3664 0.0144761C20.5732 0.00581629 20.7829 0.00292969 20.9926 0.00292969C20.8922 0.00292969 20.7918 0.00292969 20.6913 0.00292969V0.00581629ZM19.7432 0.0491153C19.8022 0.0433421 19.8613 0.0404555 19.9234 0.0375689H19.8879C19.8377 0.0375689 19.7904 0.0433421 19.7432 0.0491153ZM19.3326 0.0837544C19.4655 0.0693214 19.6014 0.057775 19.7343 0.0491153C19.6723 0.0491153 19.6102 0.057775 19.5512 0.0635482C19.4773 0.0635482 19.4064 0.072208 19.3326 0.0837544ZM18.5085 0.181899C18.6946 0.155919 18.8836 0.12994 19.0697 0.109734C19.0402 0.109734 19.0106 0.115507 18.9811 0.118394C18.8245 0.1386 18.665 0.158806 18.5085 0.181899Z" fill="white"/>
</g>
<defs>
<clipPath id="clip0_63_2">
<rect width="42" height="42" fill="white"/>
</clipPath>
</defs>
</svg>
