<svg xmlns="http://www.w3.org/2000/svg" width="500" height="500"><defs><style>.cls-1{fill:#fab600}.cls-1,.cls-10,.cls-2,.cls-6,.cls-8{fill-rule:evenodd}.cls-2{fill:#ccc}.cls-6{fill:#999}.cls-8{fill:#1d2029}.cls-10{fill:none;stroke:#fff;stroke-linecap:round;stroke-linejoin:round;stroke-width:2px}</style></defs><path id="Star" class="cls-1" d="M143.483 50.84l2.063 3.964 4.43.754-3.154 3.171.674 4.461-4.013-2.036-4.013 2.036.675-4.461-3.155-3.171 4.43-.754 2.063-3.964"/><path id="Star-2" data-name="Star" class="cls-2" d="M158.483 50.84l2.063 3.964 4.43.754-3.154 3.171.674 4.461-4.013-2.036-4.013 2.036.675-4.461-3.155-3.171 4.43-.754 2.063-3.964"/><path class="cls-2" d="M99 62a7 7 0 117-7 7 7 0 01-7 7zm2.828-8.416a1 1 0 10-1.414-1.414L99 53.584l-1.415-1.414a1 1 0 00-1.414 1.414L97.585 55l-1.414 1.414a1 1 0 001.414 1.414L99 56.412l1.415 1.414a1 1 0 101.414-1.414L100.414 55z"/><path id="Star-3" data-name="Star" class="cls-1" d="M382.449 49.838l2.69 5.162 5.773.982-4.112 4.138.879 5.815-5.23-2.654-5.231 2.654.882-5.815-4.111-4.134L379.76 55l2.689-5.166"/><path id="Star-4" data-name="Star" class="cls-2" d="M401.45 49.838L404.139 55l5.773.982-4.112 4.138.879 5.815-5.23-2.654-5.231 2.654.88-5.815-4.112-4.134 5.775-.986 2.689-5.166"/><path id="_-" data-name="+-" d="M89 206v-2h10v2H89zm-24 4h-2v-4h-4v-2h4v-4h2v4h4v2h-4v4zm-38-6h12v2H27v-2zm-19 7H6v-5H1v-2h5v-5h2v5h5v2H8v5z" fill="#333" fill-rule="evenodd"/><path id="Check" d="M124.691 54.668l-5.791 6.056a1 1 0 01-1.415 0l-3.213-3.024a1 1 0 011.414-1.414l2.468 2.324 5.123-5.355a1 1 0 111.414 1.413z" fill="#37ac09" fill-rule="evenodd"/><path id="X" d="M182.9 92.5l2.809 2.809a.993.993 0 11-1.4 1.4L181.5 93.9l-2.809 2.809a.993.993 0 11-1.405-1.4L180.1 92.5l-2.809-2.809a.993.993 0 111.405-1.4l2.809 2.809 2.809-2.809a.993.993 0 111.4 1.4z" fill="#222" fill-rule="evenodd"/><path id="wallet" class="cls-6" d="M87 99H77a2.991 2.991 0 01-2.96-2.6A2.012 2.012 0 0174 96V86a2 2 0 012-2h9a2 2 0 012 2H76v1h11a2 2 0 012 2v8a2 2 0 01-2 2zm0-10H76v7a1 1 0 001 1h10v-8zm-4 3h1a1 1 0 110 2h-1a1 1 0 110-2z"/><path id="gift" d="M151 93v6a1 1 0 01-1 1h-12a1 1 0 01-1-1v-6h-1v-4a2 2 0 012-2h1.05a2.5 2.5 0 012.45-3h1a2.482 2.482 0 011.662.645A2.972 2.972 0 01146 84h.5a2.5 2.5 0 012.449 3H150a2 2 0 012 2v4h-1zm-12-4h-1v2h4v2h-3v5h4v-9h-4zm3.5-3h-1a.5.5 0 000 1h1a.5.5 0 000-1zm4 0h-1a.5.5 0 000 1h1a.5.5 0 000-1zm3.5 3h-5v9h4v-5h-3v-2h4v-2z" fill="#888" fill-rule="evenodd"/><path id="Shape" class="cls-8" d="M90.7 17.7a1.039 1.039 0 01-1.469 0l-2.8-2.8a6.022 6.022 0 111.469-1.469l2.8 2.8a1.039 1.039 0 010 1.469zM83 6a4 4 0 104 4 4 4 0 00-4-4z"/><path id="Shape-2" data-name="Shape" class="cls-8" d="M119.5 10a1.5 1.5 0 11-1.5 1.5 1.5 1.5 0 011.5-1.5zm6 0a1.5 1.5 0 11-1.5 1.5 1.5 1.5 0 011.5-1.5zm6 0a1.5 1.5 0 11-1.5 1.5 1.5 1.5 0 011.5-1.5z"/><path id="Shape-3" data-name="Shape" d="M158.5 10a1.5 1.5 0 11-1.5 1.5 1.5 1.5 0 011.5-1.5zm6 0a1.5 1.5 0 11-1.5 1.5 1.5 1.5 0 011.5-1.5zm6 0a1.5 1.5 0 11-1.5 1.5 1.5 1.5 0 011.5-1.5z" fill="#fff" fill-rule="evenodd"/><path id="Print" class="cls-6" d="M43 97h-3v1a1 1 0 01-1 1h-6a1 1 0 01-1-1v-1h-3a1 1 0 01-1-1v-6a1 1 0 011-1h3v-3a1 1 0 011-1h6a1 1 0 011 1v3h3a1 1 0 011 1v6a1 1 0 01-1 1zm-9 0h4v-2h-4v2zm4-10h-4v2h4v-2zm4 4H30v4h2v-1a1 1 0 011-1h6a1 1 0 011 1v1h2v-4z"/><path class="cls-10" d="M45 55H34M41 50l5 5-5 5"/></svg>