<svg version="1.2" baseProfile="tiny" id="Слой_1" xmlns="http://www.w3.org/2000/svg" x="0" y="0" viewBox="0 0 1100 400" xml:space="preserve"><path fill="none" d="M-36.9 534.6V-36.9h1571.4v571.4H-36.9z" transform="matrix(.7 0 0 .7 25.8 25.8)"/><path fill="#ECF0F1" d="M737.8 74.6v112.5c0 31.1-50.4 56.3-112.5 56.3s-112.5-25.2-112.5-56.3V74.6h225" transform="matrix(.7 0 0 .7 25.8 25.8)"/><path fill="#ECF0F1" d="M644.2 164.1c-47.8 0-89 10.2-119.4 27.7 3.3 10.5 17.1 21.1 37.7 28.4 22.4-8.9 50.9-14.2 81.7-14.2 20.3 0 39.6 2.3 56.7 6.4.3-.2.6-.3.9-.5v-42.2c-17.8-3.6-37.2-5.6-57.6-5.6" transform="matrix(.7 0 0 .7 25.8 25.8)"/><path fill="#FFF" d="M625.3 18.3c62.1 0 112.5 25.2 112.5 56.3s-50.4 56.3-112.5 56.3-112.5-25.2-112.5-56.3c0-31.1 50.4-56.3 112.5-56.3z" transform="matrix(.7 0 0 .7 25.8 25.8)"/><path fill="#CCC" d="M623.1 4.8c-72 0-126 30.2-126 69.8v112.5c0 39.6 54 69.8 126 69.8s126-30.2 126-69.8V74.6c0-39.6-54-69.8-126-69.8m0 27c56.7 0 99 22.5 99 42.8s-42.3 42.8-99 42.8-99-22.5-99-42.8 42.2-42.8 99-42.8m0 198c-56.7 0-99-22.5-99-42.8v-68.4c22.5 15.8 58.1 25.7 99 25.7 41 0 76.5-9.9 99-25.7V187c0 20.3-42.3 42.8-99 42.8" transform="matrix(.7 0 0 .7 25.8 25.8)"/><path fill="#FF3636" d="M625.3 85.8c14.4 0 26.6-1.8 36.5-4.1 7.7-1.8 7.7-13.1 0-14.4-9.9-2.3-22.5-4.1-36.5-4.1-14.4 0-26.6 1.8-36.5 4.1-7.7 1.8-7.7 13.1 0 14.4 9.9 2.3 22.1 4.1 36.5 4.1z" transform="matrix(.7 0 0 .7 25.8 25.8)"/><path fill="#ECF0F1" d="M959.2 163.7v122c0 33.8-54.5 60.8-122 60.8s-122-27.5-122-60.8v-122h244" transform="matrix(.7 0 0 .7 25.8 25.8)"/><path fill="#ECF0F1" d="M728.8 208.7v12.8c28.4 12 46.6 30 46.8 50.2V324c12 3.8 26 6.7 41.4 8v-60.3c0-12.6-2.9-24.4-8.5-35.3-32.7-3.7-60.7-13.7-79.7-27.7m216.9 0c-7 5.1-15.2 9.7-24.3 13.6v63.4c0 15.8-12.3 30.4-32.4 41.3 35-8.7 56.7-25.5 56.7-41.3v-77" transform="matrix(.7 0 0 .7 25.8 25.8)"/><path fill="#FFF" d="M837.3 102.9c67.4 0 122 27.2 122 60.8s-54.6 60.8-122 60.8-122-27.2-122-60.8 54.6-60.8 122-60.8z" transform="matrix(.7 0 0 .7 25.8 25.8)"/><path fill="#CCC" d="M837.3 89.4c-76.1 0-135.5 32.9-135.5 74.3v122c0 41.9 59.4 74.3 135.5 74.3s135.5-32.9 135.5-74.3v-122c-.1-41.9-59.5-74.3-135.5-74.3m0 27c63.9 0 108.5 25.2 108.5 47.3 0 22.5-44.6 47.3-108.5 47.3s-108.5-25.2-108.5-47.3c0-22.5 44.6-47.3 108.5-47.3m0 216.5c-63.9 0-108.5-25.2-108.5-47.3v-77c24.3 18 63.5 29.3 108.5 29.3s83.7-11.3 108.5-29.3v77c-.1 22.6-44.6 47.3-108.5 47.3" transform="matrix(.7 0 0 .7 25.8 25.8)"/><path fill="#FFC09A" d="M837.3 175.8c15.3 0 28.8-1.8 39.6-4.1 8.6-1.8 8.6-14 0-15.8-10.8-2.7-24.3-4.1-39.6-4.1s-28.8 1.8-39.6 4.1c-8.6 1.8-8.6 14 0 15.8 10.8 2.3 24.3 4.1 39.6 4.1z" transform="matrix(.7 0 0 .7 25.8 25.8)"/><path fill="#ECF0F1" d="M644.2 206c-72.5 0-131.4 29.3-131.4 65.7v131.4c0 36.5 59 65.7 131.4 65.7s131.4-29.3 131.4-65.7V271.7c-.4-36.5-58.9-65.7-131.4-65.7" transform="matrix(.7 0 0 .7 25.8 25.8)"/><path fill="#ECF0F1" d="M644.2 206c-7.2 0-14 .5-20.7.9 62.6 5 110.3 32 110.3 64.8v131.4c0 32.9-47.7 59.9-110.3 64.8 6.8.5 13.5.9 20.7.9 72.5 0 131.4-29.3 131.4-65.7V271.7c-.2-20.2-18.4-38.2-46.8-50.2-8.2-3.5-17.3-6.4-27-8.8-.3-.1-.6-.1-.9-.2-17.1-4.2-36.4-6.5-56.7-6.5" transform="matrix(.7 0 0 .7 25.8 25.8)"/><path fill="#FFF" d="M644.2 206c72.6 0 131.4 29.4 131.4 65.7s-58.8 65.7-131.4 65.7c-72.6 0-131.4-29.4-131.4-65.7 0-36.3 58.8-65.7 131.4-65.7z" transform="matrix(.7 0 0 .7 25.8 25.8)"/><path fill="#F1C40F" d="M644.2 284.8c16.7 0 31.1-1.8 42.8-4.5 9-2.3 9-14.9 0-17.1-11.7-2.7-26.1-4.5-42.8-4.5s-31.1 1.8-42.8 4.5c-9 2.3-9 14.9 0 17.1 11.8 2.2 26.2 4.5 42.8 4.5z" transform="matrix(.7 0 0 .7 25.8 25.8)"/><path fill="#CCC" d="M641.5 192.5c-81 0-144.9 34.7-144.9 79.2v131.4c0 44.6 63.5 79.2 144.9 79.2s144.9-34.6 144.9-79.2V271.7c0-44.6-63.9-79.2-144.9-79.2zm0 27c69.3 0 117.9 27.5 117.9 52.2 0 24.8-48.2 52.2-117.9 52.2S523.6 296 523.6 271.7c0-24.8 48.6-52.2 117.9-52.2zm0 235.4c-69.3 0-117.9-27.5-117.9-52.2v-84.6c26.1 19.8 68.9 32.4 117.9 32.4 49.1 0 91.8-12.6 117.9-32.4v84.6c0 24.7-48.6 52.2-117.9 52.2z" transform="matrix(.7 0 0 .7 25.8 25.8)"/></svg>