<svg width="24" height="20" viewBox="0 0 24 20" fill="none" xmlns="http://www.w3.org/2000/svg">
<path fill-rule="evenodd" clip-rule="evenodd" d="M17.1697 1.6951C16.9003 1.67496 16.5528 1.67442 16.0284 1.67442H14.6578C14.1954 1.67442 13.8206 1.29959 13.8206 0.83721C13.8206 0.374832 14.1954 8.37308e-07 14.6578 8.37308e-07L16.0585 4.38096e-07C16.5448 -1.02741e-05 16.9552 -1.92558e-05 17.2945 0.0253387C17.651 0.0519845 17.9888 0.109676 18.3187 0.255916C18.8279 0.481647 19.2635 0.845763 19.5742 1.30752C19.776 1.60747 19.8901 1.93004 19.9758 2.2751C20.0571 2.6027 20.1247 3.00371 20.2045 3.47703L21.3305 10.1535C21.3715 10.3965 21.3034 10.6451 21.1443 10.8333C20.9852 11.0214 20.7514 11.13 20.505 11.13C17.7287 11.13 15.495 13.3515 15.495 16.0711C15.495 16.5335 15.1202 16.9083 14.6578 16.9083H6.88747C6.50889 18.4221 5.12711 19.5349 3.49502 19.5349C1.57414 19.5349 0 17.9934 0 16.0711C0 14.1488 1.57414 12.6074 3.49502 12.6074C5.12711 12.6074 6.50889 13.7202 6.88747 15.2339H13.8735C14.249 12.2879 16.5796 9.95425 19.5266 9.52599L18.5585 3.78571C18.4723 3.27414 18.4148 2.93671 18.3507 2.67862C18.2892 2.43102 18.2352 2.31684 18.185 2.24231C18.0515 2.04387 17.8629 1.88544 17.6401 1.78665C17.5547 1.74882 17.4289 1.71447 17.1697 1.6951ZM3.49502 14.2818C2.48016 14.2818 1.67442 15.0922 1.67442 16.0711C1.67442 17.05 2.48016 17.8605 3.49502 17.8605C4.50987 17.8605 5.31561 17.05 5.31561 16.0711C5.31561 15.0922 4.50987 14.2818 3.49502 14.2818ZM20.505 14.2818C19.4901 14.2818 18.6844 15.0922 18.6844 16.0711C18.6844 17.05 19.4901 17.8605 20.505 17.8605C21.5198 17.8605 22.3256 17.05 22.3256 16.0711C22.3256 15.0922 21.5198 14.2818 20.505 14.2818ZM17.01 16.0711C17.01 14.1488 18.5841 12.6074 20.505 12.6074C22.4259 12.6074 24 14.1488 24 16.0711C24 17.9934 22.4259 19.5349 20.505 19.5349C18.5841 19.5349 17.01 17.9934 17.01 16.0711Z" fill="black"/>
<rect x="1" y="1" width="7" height="2" rx="1" fill="black"/>
<rect x="3" y="4" width="7" height="2" rx="1" fill="black"/>
<rect y="7" width="7" height="2" rx="1" fill="black"/>
</svg>
