<svg xmlns="http://www.w3.org/2000/svg" width="13" height="16"><path id="marker.svg" d="M6.517 1A6.517 6.517 0 000 7.517 6.414 6.414 0 001.237 11.3c.014.026.016.054.032.079l4.345 5.2a1.085 1.085 0 001.807 0l4.345-5.2c.016-.024.018-.053.032-.079a6.414 6.414 0 001.237-3.783A6.517 6.517 0 006.517 1zm3.368 9.509l-3.369 4.04-3.369-4.04A6.824 6.824 0 012.025 7.48a4.492 4.492 0 118.983 0 5.606 5.606 0 01-1.122 3.029zM6.516 6.016a1.5 1.5 0 101.5 1.5 1.5 1.5 0 00-1.5-1.5z" transform="translate(0 -1)" fill="#222" fill-rule="evenodd"/></svg>