<svg xmlns="http://www.w3.org/2000/svg" width="600" height="600"><defs><linearGradient id="linear-gradient" x1="257.803" y1="69" x2="266.197" y2="51" gradientUnits="userSpaceOnUse"><stop offset="0" stop-color="#ff8c3f"/><stop offset=".496" stop-color="#ea1083"/><stop offset="1" stop-color="#6e13c5"/></linearGradient><style>.cls-1,.cls-15,.cls-3{fill:#fff}.cls-2{fill:#333}.cls-12,.cls-14,.cls-18,.cls-19,.cls-2,.cls-3,.cls-4,.cls-5,.cls-7,.cls-8{fill-rule:evenodd}.cls-12,.cls-14,.cls-19,.cls-30,.cls-4,.cls-7{fill:none;stroke-linecap:round;stroke-linejoin:round;stroke-width:2px}.cls-14,.cls-4{stroke:#fff}.cls-5,.cls-6{fill:#222}.cls-7{stroke:#000}.cls-12{stroke:#222}.cls-14,.cls-15{opacity:.7}.cls-18{fill:#969ba5}.cls-19,.cls-30{stroke:#969ba5}</style></defs><circle class="cls-1" cx="175" cy="273" r="59"/><path id="Polygon_1" data-name="Polygon 1" class="cls-2" d="M198 273l-38 18.008v-36.016z"/><circle class="cls-1" cx="32.5" cy="302.5" r="29.5"/><path id="Polygon_1-2" data-name="Polygon 1" class="cls-2" d="M44 302.5l-19 9v-18z"/><circle class="cls-1" cx="87" cy="316" r="15"/><path id="Polygon_1-3" data-name="Polygon 1" class="cls-2" d="M93.942 316L83 321.318v-10.636z"/><path id="Shape" class="cls-3" d="M270.7 192.7a1.038 1.038 0 01-1.469 0l-3.511-3.511a10.064 10.064 0 111.571-1.368l3.409 3.41a1.038 1.038 0 010 1.469zM260 173a8 8 0 11-8 8 8 8 0 018-8zm3 9h-2v2a1 1 0 01-2 0v-2h-2a1 1 0 010-2h2v-2a1 1 0 012 0v2h2a1 1 0 010 2z"/><path class="cls-4" d="M252 156h17M257 150l-6 6 6 6"/><path id="Shape-2" data-name="Shape" class="cls-5" d="M306.7 319.7a1.038 1.038 0 01-1.469 0l-3.09-3.09a7.055 7.055 0 111.469-1.469l3.09 3.09a1.038 1.038 0 010 1.469zM298 306a5 5 0 11-5 5 5 5 0 015-5zm2 6h-1v1a1 1 0 01-2 0v-1h-1a1 1 0 010-2h1v-1a1 1 0 012 0v1h1a1 1 0 010 2z"/><path class="cls-5" d="M190 200v-42.047L200.954 147H232v53h-42zm2-2v-39.3l9.7-9.7H230v49h-38z"/><path id="Rounded" class="cls-5" d="M199 163h24a1 1 0 010 2h-24a1 1 0 010-2zm-9-3v-2h11v-11h2v13h-13z"/><path id="Rounded-2" data-name="Rounded" class="cls-5" d="M199 168h24a1 1 0 110 2h-24a1 1 0 110-2z"/><path id="Rounded-3" data-name="Rounded" class="cls-5" d="M199 173h16a1 1 0 010 2h-16a1 1 0 010-2z"/><path id="Rounded-4" data-name="Rounded" class="cls-5" d="M218.707 183.694l-8 7.992a1.013 1.013 0 01-1.427 0l-4.993-4.983a1.008 1.008 0 011.426-1.424l4.287 4.274 7.286-7.281a1.006 1.006 0 011.421 1.422z"/><path class="cls-5" d="M405 269v-49.124l8.9-8.876H453v58h-48zm2-2v-46.04l7.789-7.96H451v54h-44z"/><path id="Rounded-5" data-name="Rounded" class="cls-5" d="M416 227h26a1 1 0 010 2h-26a1 1 0 010-2zm-11-5v-2h9v-9h2v11h-11z"/><path id="Rounded-6" data-name="Rounded" class="cls-5" d="M416 232h26a1 1 0 010 2h-26a1 1 0 010-2z"/><path id="Rounded-7" data-name="Rounded" class="cls-5" d="M416 237h26a1 1 0 010 2h-26a1 1 0 010-2zm0 5h16a1 1 0 010 2h-16a1 1 0 010-2zm0 14h8a1 1 0 010 2h-8a1 1 0 010-2z"/><path id="Rounded-8" data-name="Rounded" class="cls-5" d="M442.706 251.7l-6.994 6.991a1.016 1.016 0 01-1.43 0l-2.993-2.983a1.008 1.008 0 111.426-1.424l2.285 2.269 6.284-6.281a1.007 1.007 0 111.422 1.428z"/><circle id="Ellipse" class="cls-6" cx="261" cy="243" r="12"/><path id="Rounded-9" data-name="Rounded" class="cls-3" d="M266.745 240.642l-5.947 5.947a.907.907 0 01-.082.123.97.97 0 01-.707.281.95.95 0 01-.695-.278c-.019-.019-.026-.045-.044-.066l-3.009-2.994a.963.963 0 010-1.371.982.982 0 011.382 0l2.378 2.366 5.366-5.365a.96.96 0 111.358 1.357z"/><path class="cls-7" d="M269 348h-12M264 343l5 5-5 5"/><path id="Shape-3" data-name="Shape" class="cls-3" d="M2.5 337a1.5 1.5 0 11-1.5 1.5 1.5 1.5 0 011.5-1.5zm7 0a1.5 1.5 0 11-1.5 1.5 1.5 1.5 0 011.5-1.5zm7 0a1.5 1.5 0 11-1.5 1.5 1.5 1.5 0 011.5-1.5z"/><path id="Rectangle" class="cls-3" d="M16.5 336a1.5 1.5 0 000-3H19v3h-2.5zm-1.5-1.5a1.5 1.5 0 001.5 1.5h-7a1.5 1.5 0 100-3h7a1.5 1.5 0 00-1.5 1.5zm-7 0a1.5 1.5 0 001.5 1.5h-7a1.5 1.5 0 000-3h7a1.5 1.5 0 00-1.5 1.5zm-7 0a1.5 1.5 0 001.5 1.5H0v-3h2.5a1.5 1.5 0 00-1.5 1.5z"/><path id="Rectangle-2" data-name="Rectangle" class="cls-8" d="M20.014 333h4.973l-2.487 2.984z"/><path id="Rectangle-3" data-name="Rectangle" class="cls-3" d="M20.014 337h4.973l-2.487 2.984z"/><path id="Rectangle-4" data-name="Rectangle" class="cls-3" d="M31.014 338h4.973l-2.487 2.984z"/><path id="Rectangle-5" data-name="Rectangle" class="cls-8" d="M39.013 341h4.973l-2.486-3.015z"/><path id="Rectangle-6" data-name="Rectangle" class="cls-8" d="M47.013 338h4.973l-2.486 3.015z"/><circle cx="261" cy="216" r="12" fill="#999"/><rect id="Rectangle-7" data-name="Rectangle" class="cls-1" x="256" y="215" width="10" height="2" rx="1" ry="1"/><path id="Rounded_Rectangle" data-name="Rounded Rectangle" d="M262.537 262.406l9.182 14.884a1.107 1.107 0 01-.331 1.709h-18.754a1.05 1.05 0 01-.33-1.709l9.182-14.884c.566-.553.484-.553 1.051 0z" fill="#d21515" fill-rule="evenodd"/><path id="Rectangle-8" data-name="Rectangle" class="cls-3" d="M261 268h2v5h-2v-5zm0 6h2v2h-2v-2z"/><circle id="Ellipse-2" data-name="Ellipse" cx="30" cy="162" r="9" fill="#5bb147"/><path id="Rounded-10" data-name="Rounded" class="cls-3" d="M29.646 164.828l4.243-4.242a1 1 0 00-1.414-1.414l-4.243 4.242a1 1 0 001.414 1.414z"/><path id="Rounded-11" data-name="Rounded" class="cls-3" d="M29.646 164.828a1 1 0 000-1.414l-2.121-2.121a1 1 0 10-1.414 1.414l2.121 2.121a1 1 0 001.414 0z"/><path id="Thumb_up" data-name="Thumb up" class="cls-12" d="M268.977 320.409l-1.3 6.258v.021a1.464 1.464 0 01-1.749 1.343l-7.395-.031a.808.808 0 01-.5-.493l-.02-7 .087-.027a4.507 4.507 0 002.892-4.117v-2.345a4.218 4.218 0 012.141.158 2.279 2.279 0 01.878 1.86l-.094 2.391a.59.59 0 00.6.582h3.281a1.189 1.189 0 011.2 1.174 1.833 1.833 0 01-.021.226z"/><path class="cls-6" d="M255 319h1v10h-1a1 1 0 01-1-1v-8a1 1 0 011-1z"/><path id="Plane" class="cls-3" d="M469.059 1.685a2.784 2.784 0 00-3.005-.431L285.611 85.023a2.777 2.777 0 00-.053 5.013l51.065 25.039a2.78 2.78 0 002.889-.269l49.65-37.077-38.977 40.059a2.778 2.778 0 00-.779 2.149l3.881 50.5a2.782 2.782 0 004.877 1.6l27.1-31.382 33.506 16a2.782 2.782 0 003.851-1.675L469.878 4.606a2.775 2.775 0 00-.819-2.921z"/><path id="Rounded-12" data-name="Rounded" class="cls-5" d="M55 164a1 1 0 01-1-1v-1.612l-3.285 3.285a1 1 0 11-1.414-1.414L52.559 160H51a1 1 0 010-2h4.5a.5.5 0 01.5.5v4.5a1 1 0 01-1 1zm-2 4a1 1 0 01-1 1h-6a1 1 0 01-1-1v-6a1 1 0 012 0v5h5a1 1 0 011 1z"/><path class="cls-12" d="M24 177a12 12 0 0112 12M24 182a7 7 0 017 7"/><circle class="cls-6" cx="25" cy="188" r="2"/><path d="M24 116h33a4 4 0 014 4v22a4 4 0 01-4 4H24a4 4 0 01-4-4v-22a4 4 0 014-4zm0 2h33a2 2 0 012 2v22a2 2 0 01-2 2H24a2 2 0 01-2-2v-22a2 2 0 012-2z" opacity=".7" fill="#fbfbfb" fill-rule="evenodd"/><path class="cls-14" d="M26.141 139.821l8.9-8.519m10.627-.221l9.206 8.805M22.947 119.087l17.507 17.151L58.04 119.02"/><rect class="cls-15" x="3" y="124" width="13" height="2" rx="1" ry="1"/><rect x="6" y="130" width="10" height="2" rx="1" ry="1" opacity=".77" fill="#fff"/><rect class="cls-15" x="9" y="136" width="7" height="2" rx="1" ry="1"/><path d="M3 164h8v2H3v-2zm8 10H8v3H6v-3H3v-2h3v-3h2v3h3v2z" fill="#999" fill-rule="evenodd"/><path class="cls-3" d="M3 180h8v2H3v-2zm8 9H8v3H6v-3H3v-2h3v-3h2v3h3v2z"/><path id="Polygon_1-4" data-name="Polygon 1" class="cls-3" d="M13 154l-10 5v-10z"/><path class="cls-18" d="M156 196a3 3 0 01-3 3H69a3 3 0 01-3-3v-54a2.983 2.983 0 011.005-2.226l-.034-.022.3-.194c.046-.033.094-.062.142-.093L80 131.244v2.611L68.989 141a1 1 0 00-.889.577l-.009.006A.989.989 0 0068 142v54a1 1 0 001 1h84a1 1 0 001-1v-54a.985.985 0 00-.095-.413h-.007a1 1 0 00-.89-.578L142 133.855v-2.611l12.588 8.22c.05.031.1.062.146.095l.295.193-.034.022A2.982 2.982 0 01156 142v54zm-30.724-73L111 113.734 96.724 123h-4.1L111 111l18.374 12h-4.1z"/><path class="cls-19" d="M77 188l21.754-19.871m24.2-.2l22.041 20.033M154.4 140.784L122.877 168H99.123l-31.661-27.331"/><path class="cls-18" d="M141 151.97V124H81v28.315l-2-1.81V122h64v28.15z"/><path id="Key" class="cls-18" d="M130.733 144.707l-4.055 4.055a1 1 0 01-1.414 0l-1.415-1.414-1.414 1.414a1 1 0 01-1.414 0l-1.414-1.414-1.415 1.414a1 1 0 01-1.414 0l-1.414-1.414-1.414 1.414a1 1 0 01-.707.293h-1.48a11 11 0 11.015-10.079h14.192a1 1 0 01.708.293l4.055 4.024a1 1 0 010 1.414zM102 135a9 9 0 109 9 9 9 0 00-9-9zm23.556 5.976h-12.987a10.837 10.837 0 01-.008 6.079h.267l1.829-1.828a1 1 0 011.414 0l1.414 1.414 1.415-1.414a1 1 0 011.414 0l1.414 1.414 1.414-1.414a1 1 0 011.414 0l1.414 1.414 2.641-2.641zm-27.163 6.56a5 5 0 117.071 0 5.007 5.007 0 01-7.071 0zm5.657-5.657a3 3 0 100 4.242 3 3 0 000-4.242z"/><path id="Check" class="cls-3" d="M174.691 190.667l-5.95 6.057a1 1 0 01-1.414 0l-3.055-3.024a1 1 0 111.414-1.414l2.314 2.323 5.28-5.355a1 1 0 011.411 1.413z"/><path class="cls-5" d="M174 147a2.964 2.964 0 01-1.848-.654l-3.264 1.885a2.694 2.694 0 010 1.554l3.255 1.88A2.988 2.988 0 11171 154a3 3 0 01.072-.641l-3.331-1.924a3 3 0 11.013-4.859l3.323-1.919A3 3 0 11174 147zm0 8.187a1.188 1.188 0 10-1.188-1.187 1.186 1.186 0 001.188 1.187zm-8-7.375a1.188 1.188 0 101.187 1.188 1.188 1.188 0 00-1.187-1.188zm8-5a1.188 1.188 0 101.187 1.188 1.188 1.188 0 00-1.187-1.188z"/><path class="cls-3" d="M163 166h10v2h-10v-2zm11 13h-4v4h-2v-4h-4v-2h4v-4h2v4h4v2z"/><path class="cls-5" d="M203 46h10v2h-10v-2zm-16 2h4v4h2v-4h4v-2h-4v-4h-2v4h-4v2z"/><path class="cls-4" d="M241 23h-18M235 17l6 6-6 6"/><path class="cls-12" d="M241 7h-18M235 1l6 6-6 6M201 7h18M207 1l-6 6 6 6"/><path id="Print" d="M138.5 12H136v2h-8v-2h-2.5a1.5 1.5 0 01-1.5-1.5v-5a1.5 1.5 0 011.5-1.5h2.5V0h8v4h2.5a1.5 1.5 0 011.5 1.5v5a1.5 1.5 0 01-1.5 1.5zm-8.5 0h4v-2h-4v2zm4-10h-4v2h4V2zm4 4h-12v4h2V8h8v2h2V6z" fill="#252525" fill-rule="evenodd"/><path id="Print-2" data-name="Print" class="cls-3" d="M155.5 12H153v2h-8v-2h-2.5a1.5 1.5 0 01-1.5-1.5v-5a1.5 1.5 0 011.5-1.5h2.5V0h8v4h2.5a1.5 1.5 0 011.5 1.5v5a1.5 1.5 0 01-1.5 1.5zm-8.5 0h4v-2h-4v2zm4-10h-4v2h4V2zm4 4h-12v4h2V8h8v2h2V6z"/><path d="M0 3h8v2H0V3zm17 2h-3v3h-2V5H9V3h3V0h2v3h3v2z" fill="#95abba" fill-rule="evenodd"/><path d="M0 12h8v2H0v-2zm17 2h-3v3h-2v-3H9v-2h3V9h2v3h3v2z" fill="#151a25" fill-rule="evenodd"/><path id="Check-2" data-name="Check" class="cls-3" d="M28.691 1.667L22.9 7.724a1 1 0 01-1.414 0L18.272 4.7a1 1 0 011.414-1.414l2.467 2.323L27.277.254a1 1 0 111.414 1.413z"/><path id="Check-3" data-name="Check" d="M197.691 20.668l-5.791 6.056a1 1 0 01-1.415 0l-3.213-3.024a1 1 0 111.414-1.414l2.468 2.324 5.123-5.355a1 1 0 011.414 1.413z" fill="#1fad57" fill-rule="evenodd"/><path id="Check-4" data-name="Check" d="M213.691 20.668l-5.791 6.056a1 1 0 01-1.415 0l-3.213-3.024a1 1 0 111.414-1.414l2.468 2.324 5.123-5.355a1 1 0 011.414 1.413z" fill="#ff8707" fill-rule="evenodd"/><path id="Check-5" data-name="Check" d="M213.691 30.667l-5.791 6.057a1 1 0 01-1.415 0l-3.213-3.024a1 1 0 111.414-1.414l2.468 2.324 5.123-5.355a1 1 0 011.414 1.412z" fill="#00a4f1" fill-rule="evenodd"/><path id="Check-6" data-name="Check" d="M197.691 30.667l-5.791 6.057a1 1 0 01-1.415 0l-3.213-3.024a1 1 0 111.414-1.414l2.468 2.324 5.123-5.355a1 1 0 011.414 1.412z" fill="#d9002a" fill-rule="evenodd"/><path id="Shape-4" data-name="Shape" class="cls-3" d="M47.7 15.7a1.039 1.039 0 01-1.469 0l-3.09-3.09A6.982 6.982 0 1146 7a6.94 6.94 0 01-1.386 4.145l3.09 3.09A1.039 1.039 0 0147.7 15.7zM39 2a5 5 0 105 5 5 5 0 00-5-5z"/><path id="Shape-5" data-name="Shape" class="cls-5" d="M199.7 15.7a1.038 1.038 0 01-1.469 0l-3.09-3.09A6.982 6.982 0 11198 7a6.941 6.941 0 01-1.386 4.145l3.09 3.09a1.038 1.038 0 01-.004 1.465zM191 2a5 5 0 105 5 5 5 0 00-5-5z"/><path id="X" class="cls-5" d="M93.414 7l5.3 5.3a1 1 0 01-1.414 1.417L92 8.414l-5.3 5.3a1 1 0 11-1.418-1.414l5.3-5.3-5.3-5.3A1 1 0 1186.7.282l5.3 5.3 5.3-5.3A1 1 0 0198.718 1.7z"/><path id="X-2" data-name="X" class="cls-3" d="M59.7 9.282l6.018 6.018a1 1 0 01-1.418 1.417L58.282 10.7A1 1 0 1159.7 9.282z"/><path id="X-3" data-name="X" class="cls-3" d="M58.282 15.3L64.3 9.282a1 1 0 011.418 1.418L59.7 16.717a1 1 0 01-1.418-1.417z"/><path id="X-4" data-name="X" class="cls-18" d="M59.7.282L65.718 6.3A1 1 0 0164.3 7.717L58.282 1.7A1 1 0 0159.7.282z"/><path id="X-5" data-name="X" class="cls-18" d="M58.282 6.3L64.3.282A1 1 0 0165.718 1.7L59.7 7.717A1 1 0 0158.282 6.3z"/><path id="X-6" data-name="X" class="cls-3" d="M49 0h8v8h-8V0zm5.414 4l2.3 2.3A1 1 0 1155.3 7.717L53 5.414l-2.3 2.3A1 1 0 0149.282 6.3l2.3-2.3-2.3-2.3A1 1 0 0150.7.282l2.3 2.3 2.3-2.3A1 1 0 1156.718 1.7z"/><path id="Rectangle-9" data-name="Rectangle" d="M170 0h13v12h-13V0zm1 1h11v2h-11V1zm0 4h11v2h-11V5zm0 4h8v2h-8V9z" fill="#fefdfd" fill-rule="evenodd"/><path id="Shape-6" data-name="Shape" class="cls-3" d="M52 194a10.935 10.935 0 01-5.5-1.484A10.935 10.935 0 0141 194h-.008a11.016 11.016 0 002.375-4.2A10.993 10.993 0 1152 194zm-3-11.5a.5.5 0 00-.5-.5h-1a.5.5 0 00-.5.5v1a.5.5 0 00.5.5h1a.5.5 0 00.5-.5v-1zm4 0a.5.5 0 00-.5-.5h-1a.5.5 0 00-.5.5v1a.5.5 0 00.5.5h1a.5.5 0 00.5-.5v-1zm4 0a.5.5 0 00-.5-.5h-1a.5.5 0 00-.5.5v1a.5.5 0 00.5.5h1a.5.5 0 00.5-.5v-1z"/><circle id="Ellipse-3" data-name="Ellipse" class="cls-1" cx="262" cy="60" r="18"/><path id="Rectangle-10" data-name="Rectangle" d="M257 51h10a4 4 0 014 4v10a4 4 0 01-4 4h-10a4 4 0 01-4-4V55a4 4 0 014-4zm0 2h10a2 2 0 012 2v10a2 2 0 01-2 2h-10a2 2 0 01-2-2V55a2 2 0 012-2zm5 3a4 4 0 11-4 4 4 4 0 014-4zm0 2a2 2 0 11-2 2 2 2 0 012-2zm4.5-4h1a.5.5 0 01.5.5v1a.5.5 0 01-.5.5h-1a.5.5 0 01-.5-.5v-1a.5.5 0 01.5-.5z" fill="url(#linear-gradient)" fill-rule="evenodd"/><path id="Ellipse-4" data-name="Ellipse" class="cls-3" d="M243 39V0h38v39h-38zm28-28a1 1 0 10-2 0v1.642A9.34 9.34 0 00262.5 10a9.5 9.5 0 108.258 14.17l-1.732-1a7.51 7.51 0 11-1.455-9.17H266a1 1 0 000 2h5v-5z"/><circle id="Circle" cx="136" cy="63" r="44" stroke="#77d03c" fill="none" stroke-linecap="round" stroke-linejoin="round" stroke-width="2"/><circle id="Circle-2" data-name="Circle" class="cls-30" cx="45" cy="63" r="44"/><circle id="Circle-3" data-name="Circle" class="cls-30" cx="38" cy="77" r="6"/><circle id="Circle-4" data-name="Circle" class="cls-30" cx="54" cy="77" r="6"/><path id="Circle-5" data-name="Circle" class="cls-19" d="M22 46h6l5 21h26l3-14H30"/><path d="M115 63l14 14 28.009-28.013" stroke="#77d03c" fill="none" stroke-linecap="round" stroke-linejoin="round" stroke-width="2" fill-rule="evenodd"/><path id="Rectangle-11" data-name="Rectangle" class="cls-5" d="M249 83h14.364L271 90.7V110h-22V83zm2 2h11.5l6.5 6.5V108h-18V85zm15-2h5v5z"/><path id="Rectangle-12" data-name="Rectangle" class="cls-3" d="M250 114h14.364l7.636 7.7V141h-22v-27zm2 2h11.5l6.5 6.5V139h-18v-23zm15-2h5v5z"/><path id="Cart" class="cls-5" d="M117 4c0 .012-.007.022-.007.034a.916.916 0 010 .181L115.9 9.1a.56.56 0 01-.024.054.986.986 0 01-.97.851H105a.983.983 0 01-.763-.376.983.983 0 01-.283-.573L103.048 2H101a1 1 0 110-2h2.906c.025 0 .046.012.07.014a.982.982 0 01.319.064.99.99 0 01.624.808L105.192 3H116a.925.925 0 01.093.019.938.938 0 01.138 0 .864.864 0 01.1.046.923.923 0 01.113.05.966.966 0 01.235.158c.017.016.032.033.048.05a.985.985 0 01.179.266c.007.015.012.031.018.047a.96.96 0 01.067.333A.272.272 0 01117 4zm-11.165 4h8.26l.67-3h-9.316zm.669 3.012A2.488 2.488 0 11104 13.5a2.5 2.5 0 012.5-2.488zm0 3.063a.575.575 0 10-.579-.575.577.577 0 00.575.575zm7-3.079a2.5 2.5 0 11-2.5 2.5A2.5 2.5 0 01113.5 11zm0 3.079a.575.575 0 10-.579-.575.577.577 0 00.575.575z"/><path id="Cart-2" data-name="Cart" class="cls-3" d="M83.993 4.034a.955.955 0 010 .181L82.9 9.1c0 .02-.018.034-.024.054a.987.987 0 01-.97.851H72a1.159 1.159 0 01-1.046-.948L70.048 2H68a1 1 0 110-2h2.906c.025 0 .046.012.07.014a.975.975 0 01.318.064.989.989 0 01.624.808L72.192 3H83a.932.932 0 01.093.019.943.943 0 01.139 0 .937.937 0 01.1.046 1.169 1.169 0 01.347.208c.017.016.032.033.048.05a.974.974 0 01.179.266c.007.015.012.031.018.047a.965.965 0 01.067.333c.004.013.009.021.009.031 0 .012-.006.022-.007.034zM72.449 5l.386 3H81.1l.67-3h-9.321zm1.051 6.012A2.488 2.488 0 1171 13.5a2.5 2.5 0 012.5-2.488zm0 3.063a.575.575 0 10-.579-.575.577.577 0 00.579.575zm7-3.075a2.5 2.5 0 11-2.5 2.5 2.5 2.5 0 012.5-2.5zm0 3.079a.575.575 0 10-.579-.575.577.577 0 00.579.571z"/><path id="Email" class="cls-3" d="M221 52V40l8-4 8 4v12h-16zm14-2v-6.065l-6 3-6-3V50h12zm-6-11.875l-6 3v.558l6 3 6-3v-.558z"/><path id="Email-2" data-name="Email" class="cls-5" d="M161 134v-12l8-4 8 4v12h-16zm14-2v-6.065l-6 3-6-3V132h12zm-6-11.875l-6 3v.558l6 3 6-3v-.558z"/><path id="Location_pin" data-name="Location pin" class="cls-5" d="M260.675 298.418a.544.544 0 00.144.119l.093.029.094-.029a.547.547 0 00.145-.119s2.767-3.062 3.045-5.716a3.559 3.559 0 00.027-.416 3.338 3.338 0 10-6.674 0 3.464 3.464 0 00.029.422c.29 2.653 3.097 5.71 3.097 5.71zm.216-7.937a1.8 1.8 0 11-1.772 1.8 1.79 1.79 0 011.772-1.8zm-7.885 12.5l1.067-6.981h1.98l-.766 5.01 11.432-.01-.816-5h1.961l1.136 6.969z"/><path id="Location_pin-2" data-name="Location pin" class="cls-3" d="M210.675 68.418a.532.532 0 00.144.118l.093.03.094-.03a.535.535 0 00.145-.118s2.767-3.062 3.045-5.716a3.584 3.584 0 00.027-.417 3.338 3.338 0 10-6.674 0 3.459 3.459 0 00.029.422c.29 2.654 3.097 5.711 3.097 5.711zm.216-7.938a1.8 1.8 0 11-1.772 1.8 1.791 1.791 0 011.772-1.799zm-7.885 12.5l1.067-6.98h1.98l-.766 5.01 11.432-.01-.819-5h1.961L219 72.969z"/><path id="Phone" class="cls-5" d="M233 77h-8a2 2 0 01-2-2V61a2 2 0 012-2h8a2 2 0 012 2v14a2 2 0 01-2 2zm0-16h-8v8h8v-8zm-8 10v4h8v-4h-8zm3 3v-2h2v2h-2z"/><path id="Phone-2" data-name="Phone" class="cls-3" d="M197 76h-8a2 2 0 01-2-2V60a2 2 0 012-2h8a2 2 0 012 2v14a2 2 0 01-2 2zm0-16h-8v8h8v-8zm-8 10v4h8v-4h-8zm3 3v-2h2v2h-2z"/><path id="Rounded-13" data-name="Rounded" class="cls-3" d="M168.788 5.393L164.54 9.64a.788.788 0 01-.691.211.8.8 0 01-.569-.235l-2.067-2.13a.8.8 0 011.135-1.135l1.582 1.63 3.723-3.723a.8.8 0 111.135 1.135z"/><path id="Rectangle-13" data-name="Rectangle" class="cls-5" d="M373 280h-6v11h-1.988l-12.964-11H314a1 1 0 010-2h38.968L365 288.287V278h8a2 2 0 002-2v-46a2 2 0 00-2-2h-4a1 1 0 010-2h4a4 4 0 014 4v46a4 4 0 01-4 4zm-14-15h-45.014l-13.107 11H299v-11h-6a4 4 0 01-4-4v-46a4 4 0 014-4h66a4 4 0 014 4v46a4 4 0 01-4 4zm2-49.99a2 2 0 00-2-2h-66a2 2 0 00-2 2v46a2 2 0 002 2h8v10.2l12.153-10.2H359a2 2 0 002-2v-46z"/><path id="Rectangle-14" data-name="Rectangle" class="cls-5" d="M337.714 232.735l-13.947 13.947a1.153 1.153 0 01-1.534 0l-6.947-6.947a1.025 1.025 0 111.449-1.449l6.265 6.265 13.265-13.265a1.025 1.025 0 111.449 1.449z"/><path id="Rounded_Rectangle-2" data-name="Rounded Rectangle" class="cls-5" d="M231 122h-29.4l-8 7.289a2.94 2.94 0 01-2.6.608V122h-4a2 2 0 01-2-2V89a2 2 0 012-2h44a2 2 0 012 2v31a2 2 0 01-2 2zm0-33h-44v31h6v6.716a1.429 1.429 0 001.225-.7L200.9 120H231V89z"/><path id="Rounded_Rectangle-3" data-name="Rounded Rectangle" class="cls-5" d="M242 132h-4v7.948a2.51 2.51 0 01-2.414-.514L227.271 132H202a1 1 0 010-2h26.107l6.488 5.8a1.574 1.574 0 001.405.647V130h6V99h-4a1 1 0 010-2h4a2 2 0 012 2v31a2 2 0 01-2 2z"/><path id="Rounded_Rectangle-4" data-name="Rounded Rectangle" class="cls-5" d="M216.707 101.694l-8 7.992a1.013 1.013 0 01-1.427 0l-4.993-4.983a1.008 1.008 0 011.426-1.424l4.287 4.274 7.286-7.281a1.006 1.006 0 011.421 1.422z"/></svg>