<svg xmlns="http://www.w3.org/2000/svg" width="842" height="631" viewBox="0 0 172 172"><g fill="none" stroke-miterlimit="10" font-family="none" font-weight="none" font-size="none" text-anchor="none" style="mix-blend-mode:normal"><path d="M25.8 146.2V25.8h120.4v120.4z"/><path d="M86.564 50.727v23.515C86.564 80.732 76.03 86 63.05 86s-23.516-5.267-23.516-11.758V50.727h47.031" fill="#ecf0f1"/><path d="M67 69.445c-9.99 0-18.605 2.132-24.96 5.781.68 2.193 3.57 4.405 7.881 5.937 4.692-1.861 10.63-2.97 17.078-2.97 4.251 0 8.273.481 11.86 1.343l.181-.103V70.61c-3.73-.752-7.774-1.166-12.04-1.166" fill="#ecf0f1"/><path d="M63.049 38.969c12.987 0 23.515 5.264 23.515 11.758 0 6.493-10.528 11.757-23.515 11.757S39.533 57.22 39.533 50.727c0-6.494 10.529-11.758 23.516-11.758z" fill="#fff"/><path d="M62.578 36.147c-15.05 0-26.337 6.302-26.337 14.58v23.515c0 8.278 11.287 14.58 26.337 14.58 15.05 0 26.338-6.302 26.338-14.58V50.727c0-8.278-11.288-14.58-26.338-14.58m0 5.644c11.852 0 20.694 4.703 20.694 8.936 0 4.232-8.842 8.936-20.694 8.936-11.851 0-20.693-4.704-20.693-8.936 0-4.233 8.842-8.936 20.693-8.936m0 41.387c-11.851 0-20.693-4.703-20.693-8.936V59.945c4.703 3.292 12.134 5.361 20.693 5.361 8.56 0 15.991-2.07 20.694-5.361v14.297c0 4.233-8.842 8.936-20.694 8.936" fill="#ccc"/><path d="M63.049 53.078c3.01 0 5.55-.376 7.619-.846 1.599-.377 1.599-2.728 0-3.01a34.821 34.821 0 00-7.62-.847c-3.01 0-5.549.376-7.618.847-1.6.376-1.6 2.727 0 3.01 2.07.47 4.609.846 7.619.846z" fill="#ff3636"/><path d="M132.843 69.35v25.492c0 7.055-11.381 12.698-25.49 12.698-14.11 0-25.492-5.737-25.492-12.698V69.35h50.982" fill="#ecf0f1"/><path d="M84.683 78.757v2.667c5.945 2.513 9.73 6.277 9.783 10.502v10.934c2.51.802 5.425 1.397 8.653 1.678V91.926c0-2.628-.616-5.105-1.772-7.386-6.848-.771-12.701-2.847-16.664-5.783m45.338 0c-1.47 1.069-3.174 2.024-5.078 2.844v13.24c0 3.307-2.564 6.355-6.781 8.627 7.307-1.819 11.86-5.338 11.86-8.626V78.757" fill="#ecf0f1"/><path d="M107.352 56.653c14.079 0 25.491 5.685 25.491 12.698 0 7.013-11.412 12.698-25.49 12.698-14.08 0-25.492-5.685-25.492-12.698 0-7.013 11.413-12.698 25.491-12.698z" fill="#fff"/><path d="M107.352 53.83c-15.896 0-28.313 6.867-28.313 15.52v25.492c0 8.748 12.417 15.52 28.313 15.52 15.896 0 28.313-6.867 28.313-15.52V69.35c0-8.748-12.416-15.52-28.313-15.52m0 5.643c13.357 0 22.67 5.268 22.67 9.877 0 4.703-9.312 9.877-22.67 9.877-13.358 0-22.669-5.268-22.669-9.877 0-4.703 9.312-9.877 22.67-9.877m0 45.244c-13.358 0-22.67-5.268-22.67-9.876V78.757c5.08 3.763 13.263 6.114 22.67 6.114 9.405 0 17.495-2.351 22.668-6.114v16.085c0 4.703-9.312 9.876-22.669 9.876" fill="#ccc"/><path d="M107.352 71.89c3.197 0 6.02-.376 8.278-.846 1.787-.376 1.787-2.916 0-3.292-2.258-.564-5.08-.847-8.278-.847-3.198 0-6.02.377-8.277.847-1.788.376-1.788 2.916 0 3.292 2.257.47 5.08.847 8.277.847z" fill="#ffc09a"/><path d="M67 78.193c-15.145 0-27.467 6.114-27.467 13.733v27.466c0 7.62 12.322 13.733 27.466 13.733 15.144 0 27.467-6.114 27.467-13.733V91.926c-.094-7.62-12.323-13.733-27.467-13.733" fill="#ecf0f1"/><path d="M67 78.193c-1.506 0-2.917.094-4.327.188 13.074 1.035 23.045 6.678 23.045 13.545v27.466c0 6.867-9.97 12.51-23.045 13.545 1.41.094 2.821.187 4.326.187 15.144 0 27.467-6.114 27.467-13.733V91.926c-.052-4.225-3.838-7.989-9.783-10.502a37.285 37.285 0 00-5.824-1.887c-3.588-.863-7.609-1.344-11.86-1.344" fill="#ecf0f1"/><path d="M67 78.193c15.169 0 27.466 6.149 27.466 13.733 0 7.584-12.297 13.733-27.467 13.733-15.168 0-27.466-6.149-27.466-13.734 0-7.583 12.297-13.732 27.466-13.732z" fill="#fff"/><path d="M67 94.654c3.48 0 6.49-.377 8.935-.94 1.882-.471 1.882-3.105 0-3.575-2.445-.566-5.455-.94-8.936-.94-3.48 0-6.49.374-8.936.94-1.88.47-1.88 3.104 0 3.574 2.446.47 5.456.94 8.936.94z" fill="#f1c40f"/><path d="M66.435 75.37c-16.931 0-30.288 7.244-30.288 16.556v27.466c0 9.312 13.263 16.555 30.288 16.555s30.288-7.242 30.288-16.555V91.926c0-9.312-13.357-16.555-30.288-16.555zm0 5.645c14.486 0 24.644 5.738 24.644 10.91 0 5.174-10.064 10.912-24.644 10.912-14.58 0-24.644-5.832-24.644-10.911 0-5.173 10.158-10.911 24.644-10.911zm0 49.194c-14.486 0-24.644-5.737-24.644-10.91v-17.685c5.455 4.14 14.391 6.773 24.644 6.773 10.253 0 19.189-2.634 24.644-6.773v17.684c0 5.174-10.158 10.911-24.644 10.911z" fill="#ccc"/></g></svg>